<svg version="1.1" id="Capa_1" xmlns="http://www.w3.org/2000/svg" xmlns:xlink="http://www.w3.org/1999/xlink" x="0px" y="0px" viewBox="0 0 475.1 475.1" style="enable-background:new 0 0 475.1 475.1;" xml:space="preserve">
<style type="text/css">
	.st0{fill:url(#SVGID_1_);}
</style>
<g>
	<linearGradient id="SVGID_1_" gradientUnits="userSpaceOnUse" x1="18.266" y1="237.535" x2="456.8051" y2="237.535">
		<stop offset="0" style="stop-color:#1245C6"></stop>
		<stop offset="1" style="stop-color:#9909B7"></stop>
	</linearGradient>
	<path class="st0" d="M448.8,8c-5.3-5.3-11.8-8-19.4-8c-3,0-5.7,0.4-8,1.1L183.9,74.2c-5.7,1.9-10.4,5.3-14,10.1
		c-3.6,4.9-5.4,10.2-5.4,16.1v276.1c-16.6-7.4-34.8-11.1-54.8-11.1c-8.6,0-17.7,1-27.5,3c-9.8,2-19.7,5-29.6,9.1
		c-9.9,4.1-18.1,9.9-24.6,17.3c-6.5,7.4-9.7,15.9-9.7,25.4c0,9.5,3.2,18,9.7,25.4c6.5,7.4,14.7,13.2,24.6,17.3
		c9.9,4.1,19.8,7.1,29.6,9.1c9.8,2,19,3,27.6,3s17.7-1,27.6-3c9.8-2,19.7-5,29.6-9.1c9.9-4.1,18.1-9.9,24.6-17.3
		c6.5-7.4,9.7-15.9,9.7-25.4V217.8l219.3-67.7v153.3c-16.6-7.4-34.8-11.1-54.8-11.1c-8.6,0-17.8,1-27.6,3c-9.8,2-19.6,5-29.6,9.1
		c-9.9,4.1-18.1,9.9-24.6,17.3c-6.5,7.4-9.7,15.9-9.7,25.4c0,9.5,3.2,18,9.7,25.4c6.5,7.4,14.7,13.2,24.6,17.3
		c9.9,4.1,19.7,7.1,29.6,9.1c9.8,2,19,3,27.6,3c8.6,0,17.7-1,27.5-3c9.8-2,19.6-5,29.6-9.1c9.9-4.1,18.1-9.8,24.6-17.3
		c6.5-7.4,9.7-15.9,9.7-25.4V27.4C456.8,19.8,454.1,13.3,448.8,8z"></path>
</g>
</svg>