<svg version="1.1" id="Capa_1" xmlns="http://www.w3.org/2000/svg" xmlns:xlink="http://www.w3.org/1999/xlink" x="0px" y="0px" viewBox="0 0 438.5 438.5" style="enable-background:new 0 0 438.5 438.5;" xml:space="preserve">
<style type="text/css">
	.st0{fill:url(#SVGID_1_);}
</style>
<linearGradient id="SVGID_1_" gradientUnits="userSpaceOnUse" x1="1.000000e-03" y1="219.2685" x2="438.535" y2="219.2685">
	<stop offset="0" style="stop-color:#1245C6"></stop>
	<stop offset="1" style="stop-color:#9909B7"></stop>
</linearGradient>
<path class="st0" d="M164.5,0H18.3C13.3,0,9,1.8,5.4,5.4C1.8,9,0,13.3,0,18.3v402c0,4.9,1.8,9.2,5.4,12.8c3.6,3.6,7.9,5.4,12.9,5.4
	h146.2c4.9,0,9.2-1.8,12.8-5.4c3.6-3.6,5.4-7.9,5.4-12.8v-402c0-5-1.8-9.2-5.4-12.8C173.7,1.8,169.4,0,164.5,0z M433.1,5.4
	c-3.6-3.6-7.9-5.4-12.8-5.4H274.1c-4.9,0-9.2,1.8-12.8,5.4c-3.6,3.6-5.4,7.9-5.4,12.8v402c0,4.9,1.8,9.2,5.4,12.8
	c3.6,3.6,7.9,5.4,12.8,5.4h146.2c4.9,0,9.2-1.8,12.8-5.4c3.6-3.6,5.4-7.9,5.4-12.8v-402C438.5,13.3,436.7,9,433.1,5.4z"></path>
</svg>