<svg version="1.1" id="Capa_1" xmlns="http://www.w3.org/2000/svg" xmlns:xlink="http://www.w3.org/1999/xlink" x="0px" y="0px" viewBox="0 0 438.5 438.5" style="enable-background:new 0 0 438.5 438.5;" xml:space="preserve">
<style type="text/css">
	.st0{fill:url(#SVGID_1_);}
</style>
<g>
	<linearGradient id="SVGID_1_" gradientUnits="userSpaceOnUse" x1="0" y1="219.267" x2="438.532" y2="219.267">
		<stop offset="0" style="stop-color:#1245C6"></stop>
		<stop offset="1" style="stop-color:#9909B7"></stop>
	</linearGradient>
	<path class="st0" d="M409.1,109.2c-19.6-33.6-46.2-60.2-79.8-79.8C295.7,9.8,259.1,0,219.3,0c-39.8,0-76.5,9.8-110.1,29.4
		C75.6,49,49,75.6,29.4,109.2C9.8,142.8,0,179.5,0,219.3s9.8,76.5,29.4,110.1c19.6,33.6,46.2,60.2,79.8,79.8
		c33.6,19.6,70.3,29.4,110.1,29.4s76.5-9.8,110.1-29.4c33.6-19.6,60.2-46.2,79.8-79.8c19.6-33.6,29.4-70.3,29.4-110.1
		C438.5,179.5,428.7,142.8,409.1,109.2z M328.9,235l-155.3,91.4c-2.9,1.7-5.9,2.6-9.1,2.6c-3,0-6.1-0.8-9.1-2.3
		c-6.1-3.6-9.1-8.9-9.1-16V127.9c0-7,3-12.4,9.1-16c6.3-3.4,12.4-3.3,18.3,0.3l155.3,91.4c6.1,3.4,9.1,8.7,9.1,15.7
		C338,226.3,335,231.5,328.9,235z"></path>
</g>
</svg>